<svg width="30" height="30" viewBox="0 0 30 30" fill="none" xmlns="http://www.w3.org/2000/svg">
<path d="M25.584 4.84479C22.848 2.11001 19.2043 0.602051 15.3305 0.602051C11.4566 0.602051 7.81292 2.11001 5.07694 4.84479C2.34096 7.59234 0.832336 11.2217 0.832336 15.0938C0.832336 18.9659 2.34096 22.608 5.07694 25.3428C7.81292 28.0776 11.4566 29.5856 15.3305 29.5856C19.2043 29.5856 22.848 28.0776 25.584 25.3428C28.32 22.608 29.8286 18.9659 29.8286 15.0938C29.8286 11.2217 28.32 7.57956 25.584 4.84479ZM22.1449 19.7455L19.9842 21.9052L15.3305 17.2535L10.6768 21.9052L8.5161 19.7455L13.1698 15.0938L8.5161 10.4421L10.6768 8.28242L15.3305 12.9341L19.9842 8.28242L22.1449 10.4421L17.4911 15.0938L22.1449 19.7455Z" fill="#161616"/>
</svg>
